<svg aria-hidden="true" style="position: absolute; width: 0; height: 0; overflow: hidden;" version="1.1" xmlns="http://www.w3.org/2000/svg" xmlns:xlink="http://www.w3.org/1999/xlink">
<defs>
<symbol id="icon-Arrow-1" viewBox="0 0 82 32">
<path d="M81.414 17.414c0.781-0.781 0.781-2.047 0-2.828l-12.728-12.728c-0.781-0.781-2.047-0.781-2.828 0s-0.781 2.047 0 2.828l11.314 11.314-11.314 11.314c-0.781 0.781-0.781 2.047 0 2.828s2.047 0.781 2.828 0l12.728-12.728zM0 18h80v-4h-80v4z"></path>
</symbol>
<symbol id="icon-bakcground-photo-dots" viewBox="0 0 43 32">
<path d="M9.825 26.236c0 2.759-2.098 4.995-4.687 4.995s-4.687-2.236-4.687-4.995c0-2.759 2.098-4.995 4.687-4.995s4.687 2.236 4.687 4.995z"></path>
<path d="M19.98 19.576c0 2.759-2.098 4.995-4.687 4.995s-4.687-2.236-4.687-4.995c0-2.759 2.098-4.995 4.687-4.995s4.687 2.236 4.687 4.995z"></path>
<path d="M31.697 12.083c0 2.759-2.098 4.995-4.687 4.995s-4.687-2.236-4.687-4.995c0-2.759 2.098-4.995 4.687-4.995s4.687 2.236 4.687 4.995z"></path>
<path d="M42.633 5.423c0 2.759-2.098 4.995-4.687 4.995s-4.687-2.236-4.687-4.995c0-2.759 2.098-4.995 4.687-4.995s4.687 2.236 4.687 4.995z"></path>
</symbol>
<symbol id="icon-ce-logo" viewBox="0 0 76 32">
<path d="M20.821 20.22l-1.462 2.244 0.029 0.019 1.433-2.263zM36.565 20.979l2.677-0.059-0.069-3.1-3.056 0.519 0.448 2.64zM36.748 29.217l0.682 2.59 2.043-0.538-0.047-2.112-2.677 0.059zM16.087 29.609l0.601-2.61-0.016-0.004-0.585 2.613zM5.887 25.059l1.733-2.042-0.004-0.003-1.729 2.046zM2.2 16.69l2.678 0.013v-0.013h-2.678zM3.481 10.831l-2.403-1.182-0.002 0.004 2.405 1.178zM11.693 3.822l0.95 2.504 0.010-0.004-0.96-2.5zM38.004 3.142l2.67 0.208 0.176-2.261-2.202-0.546-0.644 2.599zM37.35 11.537l-0.499 2.631 2.937 0.557 0.232-2.98-2.67-0.208zM30.21 8.101c-4.019 0-7.398 0.429-9.866 1.515-1.265 0.556-2.415 1.339-3.253 2.444-0.864 1.14-1.276 2.468-1.276 3.872h5.356c0-0.314 0.076-0.488 0.188-0.636 0.139-0.183 0.453-0.474 1.141-0.776 1.438-0.632 3.918-1.062 7.71-1.062v-5.356zM15.815 15.931c0 2.756 1.235 5.029 3.544 6.533l2.924-4.487c-0.795-0.518-1.112-1.105-1.112-2.045h-5.356zM19.388 22.483c2.188 1.386 5.074 1.906 8.311 1.906v-5.356c-2.795 0-4.495-0.473-5.445-1.075l-2.866 4.525zM27.699 24.389c3.178 0 6.283-0.256 9.314-0.77l-0.896-5.281c-2.723 0.462-5.528 0.695-8.418 0.695v5.356zM33.888 21.038l0.183 8.238 5.355-0.119-0.183-8.238-5.355 0.119zM36.067 26.627c-3.062 0.806-6.439 1.219-10.146 1.219v5.356c4.104 0 7.945-0.458 11.509-1.396l-1.363-5.18zM25.921 27.847c-3.783 0-6.844-0.297-9.233-0.847l-1.202 5.22c2.912 0.671 6.406 0.984 10.435 0.984v-5.356zM16.672 26.996c-2.556-0.572-4.402-1.179-5.634-1.781l-2.351 4.813c1.767 0.863 4.071 1.581 6.815 2.195l1.169-5.227zM11.038 25.215c-1.32-0.645-2.454-1.381-3.418-2.199l-3.465 4.084c1.338 1.135 2.854 2.108 4.533 2.927l2.351-4.813zM7.616 23.013c-1.82-1.538-2.752-3.548-2.738-6.31l-5.356-0.027c-0.021 4.212 1.505 7.781 4.637 10.428l3.457-4.091zM4.878 16.69c0-1.8 0.353-3.343 1.008-4.68l-4.81-2.357c-1.054 2.15-1.555 4.513-1.555 7.037h5.356zM5.884 12.013c1.218-2.477 3.37-4.401 6.759-5.687l-1.9-5.008c-4.422 1.678-7.745 4.427-9.665 8.331l4.806 2.364zM12.653 6.322c3.563-1.368 7.54-2.071 11.96-2.071v-5.356c-4.995 0-9.632 0.796-13.88 2.427l1.92 5zM24.613 4.251c4.508 0 8.754 0.501 12.746 1.49l1.289-5.199c-4.447-1.103-9.128-1.648-14.035-1.648v5.356zM35.334 2.934l-0.654 8.395 5.34 0.416 0.654-8.395-5.34-0.416zM37.849 8.906c-2.786-0.528-5.338-0.805-7.639-0.805v5.356c1.884 0 4.092 0.228 6.641 0.712l0.998-5.263zM63.979 13.185l-0.015 2.678 2.722 0.015-0.029-2.722-2.678 0.028zM62.828 9.707l-1.822 1.963 0.023 0.021 1.799-1.984zM56.159 9.968l1.855 1.932 0.020-0.019-1.874-1.913zM54.538 13.133l-2.643-0.434-0.509 3.095 3.136 0.017 0.015-2.678zM74.231 27.412l1.618 2.134 0.963-0.73 0.090-1.205-2.671-0.2zM68.451 29.557l-0.576-2.616-0.016 0.003 0.591 2.612zM48.366 28.825l-0.913 2.518 0.022 0.008 0.891-2.525zM43.789 26.393l-1.662 2.1 0.016 0.013 0.016 0.013 1.63-2.125zM40.729 22.548l-2.401 1.187 0.005 0.011 2.395-1.198zM43.867 6.307l1.781 2 0.001-0.001-1.782-1.999zM68.347 3.404l1.071-2.455-0.025-0.011-1.046 2.465zM74.493 9.053l-2.409 1.171 0.007 0.015 2.401-1.186zM75.539 13.734l2.671 0.194 0.007-0.097v-0.097h-2.678zM75.225 18.050l-0.013 2.678 2.503 0.012 0.181-2.496-2.671-0.194zM54.015 17.945l0.013-2.678-3.494-0.017 0.891 3.378 2.59-0.683zM57.049 21.685l-1.318 2.331 0.011 0.006 1.307-2.338zM73.316 20.77v-2.678h-0.535l-0.494 0.206 1.029 2.472zM74.728 20.77l2.671 0.2 0.215-2.878h-2.886v2.678zM66.657 13.157c-0.021-1.937-0.466-4.016-2.030-5.434l-3.599 3.967c-0.032-0.029 0.030 0.005 0.107 0.237 0.081 0.245 0.159 0.655 0.165 1.286l5.356-0.057zM64.651 7.744c-1.406-1.305-3.249-1.736-5.065-1.736v5.356c1.043 0 1.361 0.25 1.421 0.304l3.645-3.925zM59.585 6.009c-1.995 0-3.849 0.625-5.301 2.047l3.749 3.825c0.292-0.286 0.721-0.516 1.552-0.516v-5.356zM54.305 8.036c-1.318 1.266-2.113 2.859-2.41 4.662l5.285 0.869c0.122-0.743 0.408-1.259 0.834-1.667l-3.709-3.864zM54.523 15.811l9.441 0.052 0.030-5.356-9.441-0.052-0.030 5.356zM72.613 25.278c-0.587 0.445-2.019 1.065-4.738 1.663l1.151 5.231c2.826-0.622 5.247-1.432 6.822-2.626l-3.236-4.269zM67.86 26.945c-2.595 0.588-5.090 0.876-7.49 0.876v5.356c2.831 0 5.723-0.34 8.673-1.008l-1.183-5.224zM60.37 27.821c-2.524 0-4.602-0.119-6.259-0.342l-0.715 5.308c1.969 0.265 4.302 0.39 6.974 0.39v-5.356zM54.111 27.478c-1.626-0.219-3.243-0.61-4.854-1.179l-1.783 5.051c1.946 0.687 3.921 1.167 5.922 1.437l0.715-5.308zM49.279 26.307c-1.566-0.568-2.84-1.257-3.86-2.040l-3.26 4.25c1.525 1.17 3.302 2.103 5.294 2.825l1.826-5.035zM45.451 24.293c-0.919-0.728-1.701-1.69-2.327-2.942l-4.791 2.395c0.943 1.886 2.202 3.487 3.793 4.747l3.325-4.2zM43.129 21.361c-0.563-1.139-0.899-2.606-0.899-4.488h-5.356c0 2.511 0.449 4.828 1.454 6.862l4.801-2.374zM42.23 16.873c0-1.884 0.34-3.548 0.982-5.028l-4.914-2.132c-0.962 2.217-1.424 4.615-1.424 7.16h5.356zM43.212 11.845c0.675-1.556 1.502-2.706 2.436-3.538l-3.562-4c-1.611 1.435-2.859 3.266-3.788 5.406l4.914 2.132zM45.649 8.306c2.878-2.566 7.269-4.055 13.596-4.055v-5.356c-7.098 0-12.96 1.668-17.16 5.413l3.565 3.998zM59.245 4.251c2.839 0 5.517 0.541 8.056 1.618l2.092-4.931c-3.215-1.364-6.605-2.043-10.147-2.043v5.356zM67.276 5.858c2.37 1.034 3.902 2.5 4.809 4.365l4.817-2.342c-1.534-3.156-4.1-5.456-7.484-6.933l-2.142 4.909zM72.092 10.239c0.5 1.013 0.769 2.163 0.769 3.496h5.356c0-2.084-0.428-4.056-1.323-5.867l-4.802 2.372zM72.868 13.54l-0.314 4.315 5.342 0.389 0.314-4.315-5.342-0.389zM75.238 15.372l-21.211-0.105-0.026 5.356 21.21 0.105 0.027-5.356zM51.425 18.628c0.626 2.374 2.157 4.174 4.305 5.388l2.636-4.663c-1.060-0.599-1.551-1.292-1.762-2.091l-5.179 1.366zM55.742 24.022c2.172 1.214 4.888 1.701 7.924 1.701v-5.356c-2.544 0-4.239-0.421-5.31-1.019l-2.614 4.675zM63.665 25.723c3.257 0 6.835-0.881 10.68-2.481l-2.058-4.945c-3.443 1.433-6.299 2.070-8.622 2.070v5.356zM73.316 23.448h1.412v-5.356h-1.412v5.356zM72.058 20.57l-0.497 6.643 5.341 0.399 0.497-6.643-5.341-0.4z"></path>
</symbol>
<symbol id="icon-close" viewBox="0 0 32 32">
<path d="M23.884 6.706l-7.884 7.884-7.884-7.884c-0.19-0.174-0.439-0.267-0.696-0.261s-0.502 0.11-0.684 0.292c-0.182 0.182-0.286 0.427-0.292 0.684s0.088 0.506 0.261 0.696l7.88 7.884-7.882 7.882c-0.096 0.092-0.173 0.202-0.226 0.324s-0.081 0.253-0.083 0.386 0.023 0.265 0.073 0.388c0.050 0.123 0.124 0.235 0.218 0.329s0.206 0.169 0.329 0.219 0.255 0.075 0.388 0.074c0.133-0.002 0.264-0.029 0.386-0.082s0.232-0.13 0.324-0.226l7.886-7.882 7.884 7.884c0.19 0.174 0.439 0.267 0.696 0.262s0.502-0.11 0.684-0.292c0.182-0.182 0.286-0.427 0.292-0.684s-0.088-0.506-0.262-0.696l-7.884-7.884 7.884-7.886c0.096-0.092 0.173-0.202 0.226-0.324s0.081-0.253 0.083-0.386c0.002-0.133-0.023-0.265-0.073-0.388s-0.124-0.235-0.218-0.329c-0.094-0.094-0.206-0.169-0.329-0.219s-0.255-0.075-0.388-0.074-0.264 0.029-0.386 0.082c-0.122 0.053-0.232 0.13-0.324 0.226v0.002z"></path>
</symbol>
<symbol id="icon-cow" viewBox="0 0 31 32">
<path d="M6.002 0.778c-0.254 0.219-0.979 1.733-1.24 2.559-0.31 1.024-0.416 1.791-0.373 2.852 0.056 1.514 0.437 2.661 1.275 3.861 0.218 0.314 0.394 0.585 0.394 0.607 0 0.015-0.134 0.029-0.303 0.029-0.726 0-2.085 0.241-3.128 0.556-1.655 0.497-2.627 1.367-2.627 2.34 0 0.344 0.31 0.929 0.641 1.228 0.641 0.578 2.043 1.126 3.55 1.389 0.521 0.095 2.071 0.256 2.416 0.263 0.063 0 0.085 0.336 0.085 1.44 0 0.951 0.035 1.689 0.106 2.142 0.254 1.623 1.043 3.341 2.085 4.555l0.359 0.417-0.24 0.387c-0.352 0.548-0.486 0.965-0.528 1.587-0.106 1.492 0.824 2.815 2.62 3.744 3.423 1.777 8.742 1.082 10.735-1.404 0.972-1.214 1.085-2.603 0.317-3.861l-0.239-0.388 0.43-0.519c0.803-0.965 1.324-1.93 1.719-3.151 0.331-1.038 0.458-2.040 0.458-3.627 0-0.724 0.021-1.323 0.056-1.323 0.324-0.007 1.881-0.175 2.374-0.263 1.515-0.263 2.888-0.804 3.55-1.389 0.331-0.3 0.641-0.885 0.641-1.228 0-1.082-1.099-1.96-3.142-2.486-0.669-0.175-1.93-0.387-2.543-0.424l-0.289-0.022 0.317-0.439c0.394-0.534 0.888-1.572 1.078-2.252 0.535-1.967 0.204-4.255-0.944-6.442-0.479-0.907-0.81-1.119-1.198-0.76-0.148 0.139-0.211 0.329-0.352 1.016-0.437 2.186-1.247 3.919-2.43 5.199l-0.521 0.57h-11.144l-0.465-0.505c-1.155-1.272-1.993-3.071-2.43-5.264-0.141-0.687-0.204-0.877-0.352-1.016-0.232-0.212-0.458-0.205-0.718 0.022zM6.903 5.114c0.373 0.819 0.838 1.587 1.388 2.296l0.437 0.563-0.458 0.344c-0.43 0.329-0.831 0.797-1.141 1.331l-0.134 0.241-0.338-0.461c-1.155-1.594-1.444-3.546-0.831-5.571 0.296-0.98 0.289-0.972 0.556-0.124 0.127 0.409 0.366 1.031 0.521 1.382zM25.239 3.571c0.289 0.87 0.402 1.565 0.402 2.464 0 1.331-0.352 2.457-1.092 3.466l-0.331 0.453-0.247-0.417c-0.289-0.512-0.782-1.046-1.233-1.353-0.19-0.124-0.338-0.249-0.338-0.263 0-0.022 0.134-0.19 0.303-0.373 0.782-0.87 1.62-2.435 2.036-3.78 0.127-0.417 0.254-0.76 0.275-0.76s0.127 0.256 0.225 0.563zM21.64 8.916c0.782 0.329 1.529 1.272 1.648 2.069 0.063 0.439 0.211 0.717 0.402 0.76 0.084 0.015 0.669 0.066 1.296 0.11 2.226 0.146 3.98 0.621 4.727 1.272 0.345 0.307 0.31 0.563-0.106 0.877-0.831 0.629-2.627 1.104-4.459 1.184-1.212 0.051-1.465 0.088-1.627 0.256-0.12 0.124-0.134 0.256-0.134 1.579 0 1.791-0.092 2.822-0.317 3.656-0.317 1.133-0.944 2.34-1.677 3.195l-0.303 0.351-0.627-0.373c-0.761-0.453-1.472-0.746-2.325-0.943-2.67-0.636-5.621-0.249-7.608 1.002l-0.458 0.293-0.289-0.344c-0.394-0.461-1.014-1.448-1.261-2.003-0.542-1.258-0.704-2.281-0.704-4.533 0-2.186 0.113-2.025-1.507-2.113-2.071-0.11-3.649-0.483-4.642-1.111-0.733-0.468-0.613-0.885 0.409-1.375 0.979-0.475 2.325-0.76 4.191-0.877 1.451-0.095 1.486-0.117 1.62-0.819 0.197-1.060 0.979-1.938 1.965-2.215 0.246-0.073 1.627-0.088 5.854-0.080l5.53 0.015 0.401 0.168zM17.681 24.051c1.726 0.424 3.015 1.214 3.571 2.193 0.134 0.227 0.19 0.461 0.218 0.819 0.028 0.446 0.007 0.556-0.162 0.921-0.782 1.66-3.656 2.756-6.579 2.508-3.515-0.293-5.826-2.252-4.917-4.175 0.493-1.038 2.163-2.033 3.924-2.325 0.289-0.044 0.578-0.095 0.634-0.11s0.69-0.015 1.409 0c0.979 0.022 1.451 0.066 1.902 0.168z"></path>
<path d="M10.693 12.579c-0.437 0.146-0.733 0.336-1.127 0.731-0.345 0.329-0.373 0.717-0.085 0.95 0.268 0.219 0.521 0.19 0.845-0.095 0.409-0.358 0.726-0.505 1.12-0.505 0.394-0.007 0.697 0.132 1.12 0.505 0.324 0.285 0.578 0.314 0.845 0.095 0.141-0.117 0.183-0.212 0.183-0.431 0-0.227-0.049-0.329-0.296-0.578-0.697-0.702-1.733-0.972-2.606-0.673z"></path>
<path d="M18.906 12.571c-0.451 0.168-1.029 0.548-1.261 0.833-0.225 0.278-0.232 0.592 0 0.826 0.232 0.249 0.514 0.234 0.852-0.044 0.831-0.687 1.451-0.709 2.219-0.073 0.197 0.168 0.423 0.3 0.493 0.3 0.345 0 0.627-0.307 0.627-0.673 0-0.234-0.585-0.775-1.113-1.031-0.585-0.285-1.282-0.336-1.817-0.139z"></path>
<path d="M11.714 26.106c-0.204 0.197-0.275 0.483-0.169 0.709 0.078 0.183 0.197 0.256 0.683 0.388 0.218 0.058 0.31 0.132 0.387 0.314 0.099 0.241 0.106 0.241 0.648 0.263l0.542 0.022v-0.205c-0.007-0.293-0.169-0.717-0.38-1.009-0.247-0.336-0.676-0.556-1.162-0.6-0.331-0.029-0.416-0.015-0.549 0.117z"></path>
<path d="M18.442 26.054c-0.352 0.095-0.859 0.57-1 0.943-0.063 0.168-0.127 0.468-0.134 0.665-0.014 0.314 0.014 0.388 0.183 0.541 0.416 0.366 0.965 0.080 0.965-0.504 0-0.285 0.211-0.483 0.585-0.556 0.394-0.073 0.535-0.234 0.542-0.607 0-0.49-0.437-0.68-1.141-0.483z"></path>
</symbol>
<symbol id="icon-Cursor" viewBox="0 0 32 32">
<path stroke-linejoin="miter" stroke-linecap="butt" stroke-miterlimit="4" stroke-width="1.3333" d="M12.031 9.341l7.289 6.803c1.247 1.164 0.558 3.255-1.138 3.449l-2.745 0.314c-0.689 0.079-1.336 0.37-1.851 0.834l-1.582 1.424c-1.287 1.158-3.338 0.245-3.338-1.487v-9.876c0-1.749 2.086-2.655 3.365-1.462z"></path>
</symbol>
<symbol id="icon-facebook" viewBox="0 0 32 32">
<path d="M16 32c8.837 0 16-7.163 16-16s-7.163-16-16-16c-8.837 0-16 7.163-16 16s7.163 16 16 16z"></path>
<path d="M20.446 15.982h-2.61v9.619h-3.955v-9.619h-1.881v-3.38h1.881v-2.187c0-1.564 0.739-4.014 3.99-4.014l2.929 0.012v3.281h-2.125c-0.349 0-0.839 0.175-0.839 0.921v1.989h2.955l-0.346 3.377z"></path>
</symbol>
<symbol id="icon-github" viewBox="0 0 32 32">
<path d="M32 16c0 8.837-7.163 16-16 16s-16-7.163-16-16c0-8.837 7.163-16 16-16s16 7.163 16 16z"></path>
<path d="M16 6.588c-5.169 0-9.412 4.242-9.412 9.412 0 4.411 3.095 8.419 7.206 9.412v-3.114c-0.407 0.089-0.782 0.092-1.197-0.030-0.556-0.164-1.008-0.535-1.344-1.1-0.214-0.361-0.593-0.752-0.988-0.723l-0.097-1.099c0.855-0.073 1.595 0.521 2.034 1.259 0.195 0.328 0.419 0.52 0.708 0.605 0.278 0.082 0.578 0.043 0.926-0.080 0.088-0.698 0.407-0.959 0.648-1.326v-0.001c-2.451-0.366-3.428-1.666-3.816-2.693-0.514-1.363-0.238-3.066 0.671-4.142 0.018-0.021 0.050-0.076 0.037-0.114-0.417-1.258 0.091-2.299 0.11-2.41 0.481 0.142 0.559-0.143 2.089 0.786l0.264 0.159c0.111 0.066 0.076 0.028 0.186 0.020 0.639-0.173 1.312-0.269 1.975-0.278 0.668 0.009 1.337 0.104 2.002 0.285l0.086 0.009c-0.007-0.001 0.023-0.005 0.075-0.036 1.911-1.157 1.842-0.779 2.355-0.946 0.019 0.111 0.519 1.169 0.107 2.411-0.056 0.171 1.657 1.739 0.708 4.256-0.388 1.027-1.365 2.328-3.816 2.693v0.001c0.314 0.479 0.692 0.734 0.69 1.722v3.887c4.111-0.993 7.206-5 7.206-9.412 0-5.169-4.242-9.412-9.412-9.412v0z"></path>
</symbol>
<symbol id="icon-ice-cream" viewBox="0 0 32 32">
<path d="M16.108 0.107c0.080 0.214 0.241 1.252 0.241 1.573 0 0.797-0.295 1.54-0.837 2.122-0.449 0.482-0.897 0.75-1.975 1.185-1.198 0.489-1.694 0.783-2.256 1.339-0.569 0.569-0.904 1.192-1.024 1.921-0.134 0.797 0 1.359 0.408 1.68l0.208 0.161-0.328 0.208c-0.663 0.435-1.868 1.459-2.075 1.774-0.402 0.603-0.361 1.165 0.094 1.392l0.214 0.107-0.241 0.228c-0.361 0.341-0.435 0.576-0.382 1.192 0.033 0.408 0.020 0.629-0.074 0.964-0.114 0.435-0.114 0.442 0.033 0.75 0.147 0.301 0.562 0.683 0.937 0.843 0.181 0.080 0.187 0.107 0.228 0.723 0.020 0.355 0.053 1.486 0.080 2.517 0.020 1.031 0.067 1.975 0.107 2.089 0.033 0.121 0.161 0.281 0.274 0.361 0.388 0.268 0.656 0.556 0.83 0.89 0.194 0.382 0.408 1.319 1.058 4.559l0.455 2.276 0.281 0.268c0.536 0.529 1.56 0.77 3.247 0.77 1.694 0 2.705-0.234 3.24-0.763l0.288-0.274 0.415-2.109c0.917-4.613 0.997-4.867 1.714-5.436 0.221-0.181 0.435-0.402 0.475-0.502 0.047-0.114 0.094-0.991 0.127-2.316 0.027-1.178 0.067-2.343 0.094-2.591l0.040-0.449 0.435-0.328c0.549-0.422 0.763-0.803 0.763-1.393-0.007-0.696-0.462-1.459-1.292-2.142l-0.395-0.321 0.194-0.274c0.81-1.118 0.301-2.664-1.205-3.695l-0.455-0.315 0.167-0.174c0.743-0.797 0.864-3.173 0.241-4.827-0.375-0.984-1.232-2.055-2.283-2.845-0.515-0.388-1.935-1.245-2.062-1.245-0.027 0-0.027 0.047-0.007 0.107zM18.036 2.443c0.355 0.348 0.783 0.823 0.951 1.064 0.997 1.392 1.252 3.14 0.649 4.425-0.241 0.522-0.964 1.299-1.633 1.761-1.024 0.71-3.327 1.901-4.934 2.557-2.584 1.051-4.084 1.252-4.258 0.562-0.067-0.261 0.127-0.469 0.951-1.018 0.743-0.509 4.077-2.986 4.137-3.086 0.020-0.027-0.321 0.127-0.75 0.341-1.453 0.736-2.142 0.596-2.109-0.428 0.020-0.743 0.556-1.587 1.299-2.069 0.187-0.12 0.77-0.388 1.305-0.603 1.761-0.71 2.296-1.071 2.892-1.962 0.355-0.529 0.743-1.506 0.77-1.921 0.007-0.147 0.034-0.261 0.054-0.261s0.321 0.288 0.676 0.636zM19.864 10.049c0.489 0.274 0.997 0.743 1.218 1.111 0.388 0.663 0.187 1.325-0.649 2.169-0.91 0.924-2.464 1.808-4.171 2.37-1.573 0.515-3.079 0.756-5.235 0.83l-1.339 0.047 0.87 0.054c1.125 0.074 3.3 0.007 4.144-0.127 2.243-0.355 4.151-1.064 5.516-2.042 0.308-0.221 0.629-0.402 0.716-0.402 0.221 0 1.185 0.924 1.379 1.312 0.107 0.221 0.134 0.382 0.114 0.596-0.1 0.89-1.185 1.366-3.802 1.68-3.2 0.382-7.384 0.007-9.172-0.817-0.844-0.388-0.984-0.609-0.77-1.198 0.067-0.187 0.080-0.408 0.054-0.723-0.033-0.415-0.027-0.469 0.12-0.623 0.335-0.361 0.897-0.569 2.959-1.091 0.723-0.187 1.707-0.482 2.176-0.656 1.138-0.415 3.274-1.493 4.264-2.156 0.93-0.616 1.064-0.643 1.607-0.335zM10.974 18.243c1.406 0.408 2.651 0.529 4.967 0.482 1.741-0.034 2.812-0.141 4.358-0.415 0.315-0.053 0.589-0.1 0.623-0.1 0.074 0 0.053 2.571-0.027 3.247-0.087 0.716-0.281 1.272-0.489 1.406-0.214 0.141-1.285 0.288-2.718 0.368-2.939 0.161-5.958 0-6.895-0.375-0.509-0.207-0.562-0.475-0.569-2.959 0-1.654 0.013-1.881 0.1-1.848 0.053 0.020 0.348 0.107 0.649 0.194zM12.56 23.933c0.482 0.060 1.004 0.121 1.165 0.141l0.288 0.034-0.254 0.281c-0.328 0.355-0.83 1.064-1.011 1.426-0.207 0.415-0.274 0.442-0.582 0.274l-0.261-0.147-0.147-0.91c-0.080-0.495-0.167-0.971-0.187-1.051-0.060-0.174-0.12-0.174 0.991-0.047zM19.697 23.859c0 0.013-0.033 0.187-0.067 0.382-0.040 0.201-0.208 1.292-0.375 2.43-0.341 2.377-0.569 3.495-0.777 3.869-0.288 0.502-0.977 0.797-2.095 0.89-0.435 0.034-1.747-0.053-1.821-0.12-0.053-0.060 1.098-1.486 1.279-1.58 0.167-0.094 0.214-0.080 0.783 0.214 0.663 0.348 0.997 0.402 0.997 0.181s-0.174-0.435-0.602-0.73c-0.395-0.281-0.536-0.442-0.536-0.629 0-0.053 0.194-0.355 0.428-0.669s0.576-0.817 0.75-1.118l0.328-0.542 0.301 0.040c0.609 0.087 0.77 0.080 0.75-0.053-0.013-0.067-0.127-0.261-0.254-0.422-0.127-0.167-0.228-0.335-0.228-0.368 0-0.127 0.623-1.299 0.823-1.546 0.174-0.214 0.315-0.321 0.315-0.228zM15.513 24.395c0.335 0.221 1.593 1.312 1.674 1.446 0.034 0.060-1.259 2.082-1.513 2.37-0.027 0.034-0.167-0.033-0.308-0.141-0.141-0.114-0.663-0.475-1.165-0.803l-0.904-0.596 0.542-0.917c0.964-1.613 0.944-1.587 1.151-1.587 0.107 0 0.341 0.1 0.522 0.228zM18.050 24.636c-0.234 0.288-0.428 0.469-0.509 0.469-0.174 0-0.455-0.154-0.93-0.502l-0.395-0.288 0.79-0.047c0.428-0.020 0.844-0.047 0.917-0.060 0.536-0.087 0.536-0.080 0.127 0.428zM12.989 27.856c0.616 0.241 1.66 0.81 1.962 1.064 0.214 0.174 0.214 0.187 0.127 0.402-0.054 0.121-0.234 0.442-0.415 0.716-0.174 0.268-0.375 0.602-0.449 0.743-0.214 0.415-0.281 0.449-0.723 0.328-0.475-0.141-0.73-0.382-0.864-0.817-0.181-0.609-0.469-2.33-0.435-2.598 0.013-0.1 0.295-0.040 0.797 0.161z"></path>
</symbol>
<symbol id="icon-logo-ice-cream" viewBox="0 0 17 32">
<path d="M15.959 14.685c1.642-4.393-1.758-6.797-4.012-8.377-0.431-0.323-0.862-0.624-1.211-0.901-0.624-0.519-1.083-1.204-1.324-1.972s-0.252-1.59-0.033-2.365c0.022-0.081 0.022-0.167-0.002-0.248s-0.069-0.154-0.132-0.211c-0.063-0.057-0.14-0.096-0.224-0.112s-0.17-0.010-0.25 0.018c-0.759 0.296-1.465 0.711-2.090 1.228-0.601 0.457-1.088 1.043-1.423 1.714s-0.511 1.408-0.512 2.156c-0.425 0.33-0.801 0.718-1.116 1.151-0.58 0.78-0.87 1.732-0.823 2.698-0.69 0.625-1.204 1.416-1.492 2.295s-0.339 1.817-0.15 2.722c-0.275 0.164-0.487 0.412-0.605 0.706s-0.135 0.618-0.047 0.923c0.087 0.304 0.273 0.572 0.53 0.762s0.569 0.292 0.89 0.29h0.030v2.498c0 0.253 0.102 0.497 0.284 0.676s0.429 0.28 0.686 0.28h0.754l1.228 10.493c0.026 0.234 0.138 0.45 0.315 0.606s0.407 0.244 0.646 0.243h5.111c0.239-0 0.469-0.087 0.647-0.244s0.291-0.372 0.319-0.606l1.228-10.493h0.754c0.257 0 0.504-0.101 0.686-0.28s0.284-0.422 0.284-0.676v-2.498h0.030c0.39 0 0.764-0.153 1.039-0.424s0.43-0.64 0.43-1.024c0.002-0.192-0.035-0.382-0.109-0.559s-0.183-0.338-0.322-0.473l-0.013 0.004zM4.896 6.715c0.621 2.298 3.017 3.203 5.202 4.010 0.059 0.036 0.125 0.058 0.193 0.066s0.138 0 0.203-0.021c0.065-0.022 0.125-0.057 0.175-0.104s0.088-0.104 0.113-0.168c0.025-0.063 0.035-0.132 0.030-0.199s-0.025-0.134-0.059-0.193c-0.034-0.059-0.080-0.111-0.136-0.15s-0.12-0.067-0.188-0.079c-2.353-0.879-4.573-1.699-4.741-4.048-0.039-0.646 0.084-1.291 0.358-1.879s0.692-1.099 1.215-1.49c0.328-0.269 0.68-0.508 1.052-0.714-0.024 0.294-0.024 0.59 0 0.884 0.050 0.673 0.237 1.33 0.549 1.93s0.744 1.133 1.27 1.566c0.358 0.302 0.802 0.612 1.293 0.943 1.133 0.803 2.422 1.699 3.241 2.914 0.437 0.623 0.709 1.344 0.791 2.097s-0.028 1.514-0.321 2.215h-1.905c-3.926 0-8.438-1.071-9.33-4.070-0.177-0.617-0.176-1.27 0.004-1.887s0.531-1.171 1.013-1.601l-0.022-0.021zM8.43 21.197l1.44 1.419-1.44 1.419-1.439-1.427 1.439-1.41zM11.731 24.923l-1.19 1.172-1.439-1.419 1.439-1.415 1.25 1.228-0.060 0.433zM8.43 28.177l-1.439-1.419 1.439-1.419 1.44 1.419-1.44 1.419zM7.771 24.685l-1.439 1.419-1.198-1.181-0.052-0.425 1.25-1.228 1.439 1.415zM5.668 26.758l-0.289 0.285-0.073-0.646 0.362 0.361zM5.517 28.211l0.815-0.803 1.582 1.572c0.008 0.032 0.018 0.063 0.030 0.093h-2.327l-0.099-0.862zM10.533 27.408l0.815 0.803-0.099 0.85h-2.392l1.676-1.652zM11.481 27.043l-0.289-0.285 0.366-0.361-0.078 0.646zM11.912 23.33l-0.72-0.722 0.914-0.901-0.194 1.623zM10.529 21.962l-1.366-1.342h2.732l-1.366 1.342zM6.327 21.962l-1.366-1.342h2.732l-1.366 1.342zM10.982 31.036h-5.107c-0.008-0.001-0.015-0.004-0.020-0.010s-0.009-0.012-0.010-0.020l-0.121-1.020h5.413l-0.116 1.020c-0.001 0.008-0.005 0.016-0.012 0.021s-0.014 0.008-0.023 0.008h-0.004zM14.934 16.235h-1.5c-0.065-0.006-0.131 0.001-0.193 0.022s-0.119 0.053-0.168 0.097c-0.048 0.043-0.087 0.096-0.114 0.155s-0.040 0.123-0.040 0.187c0 0.064 0.014 0.128 0.040 0.187s0.065 0.112 0.114 0.155c0.048 0.043 0.106 0.076 0.168 0.097s0.128 0.028 0.193 0.022h0.534v2.498c-0.001 0.008-0.005 0.016-0.011 0.021s-0.014 0.008-0.023 0.008h-11.020c-0.008 0-0.017-0.003-0.023-0.008s-0.010-0.013-0.011-0.021v-2.498h8.537c0.116-0.011 0.224-0.064 0.303-0.15s0.122-0.196 0.122-0.311-0.043-0.226-0.122-0.311c-0.079-0.085-0.186-0.139-0.303-0.15h-9.481c-0.074 0.007-0.148-0.002-0.219-0.026s-0.135-0.061-0.19-0.11c-0.055-0.049-0.099-0.109-0.128-0.176s-0.045-0.139-0.045-0.212c0-0.073 0.015-0.146 0.045-0.212s0.074-0.127 0.128-0.176c0.055-0.049 0.119-0.087 0.19-0.11s0.145-0.032 0.219-0.025h0.978c0.116-0.011 0.224-0.064 0.303-0.15s0.122-0.196 0.122-0.311-0.044-0.226-0.122-0.311c-0.079-0.085-0.186-0.139-0.303-0.15h-0.862c-0.123-0.646-0.103-1.311 0.059-1.949s0.463-1.234 0.881-1.746c0.302 0.926 1.077 2.192 3.017 3.199 1.823 0.939 4.236 1.419 7.171 1.419h1.724c0.074-0.007 0.148 0.002 0.219 0.025s0.135 0.061 0.19 0.11c0.055 0.049 0.098 0.109 0.128 0.176s0.045 0.139 0.045 0.212c0 0.073-0.015 0.146-0.045 0.212s-0.074 0.127-0.128 0.176c-0.055 0.049-0.119 0.087-0.19 0.11s-0.145 0.032-0.219 0.026h0.030z"></path>
</symbol>
<symbol id="icon-menu-burger" viewBox="0 0 32 32">
<path d="M26.733 14.667h-21.467c-0.7 0-1.267 0.567-1.267 1.267v0.133c0 0.7 0.567 1.267 1.267 1.267h21.467c0.7 0 1.267-0.567 1.267-1.267v-0.133c0-0.7-0.567-1.267-1.267-1.267z"></path>
<path d="M26.733 21.333h-21.467c-0.7 0-1.267 0.567-1.267 1.267v0.133c0 0.7 0.567 1.267 1.267 1.267h21.467c0.7 0 1.267-0.567 1.267-1.267v-0.133c0-0.7-0.567-1.267-1.267-1.267z"></path>
<path d="M26.733 8h-21.467c-0.7 0-1.267 0.567-1.267 1.267v0.133c0 0.7 0.567 1.267 1.267 1.267h21.467c0.7 0 1.267-0.567 1.267-1.267v-0.133c0-0.7-0.567-1.267-1.267-1.267z"></path>
</symbol>
<symbol id="icon-slider-dots" viewBox="0 0 195 32">
<path d="M113.053 16c0 8.837-7.163 16-16 16s-16-7.163-16-16c0-8.837 7.163-16 16-16s16 7.163 16 16z"></path>
<path d="M32 16c0 8.837-7.163 16-16 16s-16-7.163-16-16c0-8.837 7.163-16 16-16s16 7.163 16 16z"></path>
<path d="M193.053 16c0 8.837-7.163 16-16 16s-16-7.163-16-16c0-8.837 7.163-16 16-16s16 7.163 16 16z"></path>
</symbol>
<symbol id="icon-telegram" viewBox="0 0 32 32">
<path d="M32 16c0 8.837-7.163 16-16 16s-16-7.163-16-16c0-8.837 7.163-16 16-16s16 7.163 16 16z"></path>
<path d="M12.869 18.375l-0.318 4.169c0.454 0 0.651-0.182 0.887-0.401l2.13-1.9 4.415 3.017c0.81 0.421 1.38 0.199 1.598-0.695l2.898-12.672 0.001-0.001c0.257-1.117-0.433-1.554-1.222-1.28l-17.032 6.086c-1.162 0.421-1.145 1.026-0.198 1.3l4.354 1.264 10.115-5.907c0.476-0.294 0.909-0.131 0.553 0.163l-8.182 6.857z"></path>
</symbol>
<symbol id="icon-weight" viewBox="0 0 32 32">
<path d="M14.177 0.547c-3.974 0.589-7.247 2.796-8.451 5.685-0.384 0.913-0.488 1.473-0.488 2.573 0.007 0.812 0.037 1.114 0.162 1.552 0.259 0.863 0.443 1.301 0.827 1.919l0.355 0.575-0.399 0.489c-3.154 3.924-3.502 9.444-0.872 13.793 0.982 1.632 2.585 3.234 4.152 4.169l0.465 0.273 12.743-0.108 0.303-0.165c1.056-0.597 2.549-1.926 3.383-3.004 1.256-1.639 2.076-3.551 2.423-5.621 0.118-0.74 0.118-2.932-0.007-3.63-0.377-2.149-1.182-3.989-2.453-5.621-0.244-0.309-0.436-0.568-0.436-0.589 0-0.014 0.133-0.237 0.288-0.489 0.362-0.575 0.687-1.315 0.864-1.962 0.199-0.719 0.199-2.516 0-3.234-0.709-2.552-2.837-4.679-5.843-5.851-0.842-0.331-2.283-0.683-3.213-0.798-0.864-0.101-2.999-0.079-3.804 0.043zM18.676 1.718c3.945 0.769 6.833 3.184 7.365 6.16 0.118 0.668 0.044 1.804-0.155 2.437-0.199 0.618-0.569 1.344-1.005 1.962-0.177 0.252-0.325 0.539-0.325 0.633s0.155 0.338 0.377 0.582c1.847 2.048 2.822 4.614 2.822 7.389-0.007 3.155-1.219 5.922-3.553 8.093-0.399 0.374-0.968 0.841-1.271 1.042l-0.554 0.374-12.211 0.050-0.473-0.302c-1.714-1.114-3.258-2.954-4.115-4.909-1.079-2.472-1.189-5.34-0.31-7.913 0.465-1.337 1.086-2.429 2.031-3.579 0.384-0.46 0.561-0.733 0.561-0.863 0-0.108-0.192-0.46-0.443-0.827-0.886-1.287-1.248-2.717-1.034-4.068 0.222-1.366 0.842-2.487 1.987-3.601 1.492-1.445 3.575-2.401 6.020-2.76 1.012-0.151 3.25-0.093 4.285 0.101z"></path>
<path d="M14.51 2.983c-3.029 0.496-5.4 2.178-6.176 4.384-0.177 0.496-0.207 0.69-0.207 1.402s0.030 0.906 0.207 1.402c0.111 0.316 0.318 0.755 0.458 0.977 0.384 0.618 0.554 0.64 1.315 0.18 1.138-0.697 2.445-1.208 3.804-1.488 0.916-0.187 2.674-0.259 3.671-0.144 1.559 0.18 3.25 0.74 4.602 1.538 0.384 0.223 0.776 0.41 0.872 0.41 0.561 0 1.278-1.617 1.278-2.875 0-2.796-2.674-5.189-6.464-5.786-0.805-0.129-2.585-0.129-3.361 0zM18.166 4.133c1.271 0.273 2.438 0.791 3.317 1.473 1.182 0.913 1.817 2.185 1.714 3.414-0.037 0.489-0.222 1.15-0.332 1.222-0.029 0.014-0.443-0.158-0.916-0.388-0.983-0.474-2.098-0.855-3.228-1.1-0.687-0.144-0.975-0.165-2.512-0.158-1.514 0-1.832 0.022-2.489 0.158-1.138 0.244-2.024 0.546-3.117 1.064-1.101 0.525-1.042 0.532-1.241-0.115-0.258-0.841-0.096-1.955 0.406-2.796 0.266-0.446 0.997-1.186 1.529-1.553 1.012-0.697 1.899-1.013 3.804-1.358 0.391-0.072 2.563 0.029 3.066 0.137z"></path>
<path d="M16.962 13.405c-0.207 0.259-0.207 0.503 0.007 0.712 0.14 0.137 0.281 0.173 0.79 0.208 0.99 0.072 1.935 0.359 2.785 0.848 0.606 0.359 1.529 1.229 1.943 1.854 0.613 0.898 1.034 2.185 1.034 3.134 0 0.331 0.029 0.431 0.185 0.575 0.236 0.237 0.547 0.237 0.776 0 0.163-0.165 0.17-0.208 0.125-0.913-0.207-3.479-3.184-6.382-6.744-6.577l-0.739-0.043-0.163 0.201z"></path>
</symbol>
</defs>
</svg>
